<?xml version="1.0" encoding="UTF-8" standalone="no"?>
<svg
   width="18pt"
   height="15pt"
   viewBox="0 0 18 15"
   version="1.1"
   id="svg1"
   sodipodi:docname="icon.svg"
   inkscape:version="1.3 (0e150ed, 2023-07-21)"
   xmlns:inkscape="http://www.inkscape.org/namespaces/inkscape"
   xmlns:sodipodi="http://sodipodi.sourceforge.net/DTD/sodipodi-0.dtd"
   xmlns="http://www.w3.org/2000/svg"
   xmlns:svg="http://www.w3.org/2000/svg">
  <defs
     id="defs1" />
  <sodipodi:namedview
     id="namedview1"
     pagecolor="#ffffff"
     bordercolor="#000000"
     borderopacity="0.25"
     inkscape:showpageshadow="2"
     inkscape:pageopacity="0.0"
     inkscape:pagecheckerboard="0"
     inkscape:deskcolor="#d1d1d1"
     inkscape:document-units="pt"
     inkscape:zoom="51.833333"
     inkscape:cx="15.077171"
     inkscape:cy="10.717042"
     inkscape:window-width="2232"
     inkscape:window-height="1146"
     inkscape:window-x="2824"
     inkscape:window-y="123"
     inkscape:window-maximized="0"
     inkscape:current-layer="svg1" />
  <path
     d="M 8.7938655,0.49064736 C 7.6739144,0.49064736 6.70178,1.1927668 6.4120032,2.1721616 5.440857,2.340267 4.6968274,3.1396862 4.6968274,4.0935005 c 0,0.6431846 0.3494984,1.2210522 0.8663987,1.57188 V 5.9024644 H 3.9537802 c -0.9554821,0 -1.7279026,0.7135387 -1.7122389,1.5979182 v 3.3068414 c 0,0.884378 0.7714412,1.600658 1.7269237,1.600658 h 1.5947611 v 1.260794 c 0,0.475077 0.4111742,0.855147 0.9280746,0.855147 H 13.3476 c 0.516897,0 0.923667,-0.38007 0.923667,-0.855147 V 5.5927479 c 0.454249,-0.3617915 0.744517,-0.895805 0.744517,-1.4841726 0,-1.0817194 -0.955002,-1.9624519 -2.121943,-1.9624518 H 12.771958 C 12.482179,1.4992843 11.78563,1.0497817 10.978953,1.0497817 c -0.164469,0 -0.333348,0.015075 -0.497812,0.058928 C 10.022977,0.71402855 9.4164957,0.49064736 8.7938655,0.49064736 Z M 3.968465,7.3866372 H 5.5632261 V 10.920969 H 3.9537802 c -0.058739,0 -0.1218832,-0.05527 -0.1218832,-0.113745 H 3.84805 V 7.5003826 c 0,-0.054817 0.061675,-0.1137454 0.120415,-0.1137454 z"
     id="path2"
     sodipodi:nodetypes="scsccscsscsssscsscscssccsccss"
     style="fill:none;stroke:#000000;stroke-width:0.968433;stroke-opacity:1" />
  <text
     xml:space="preserve"
     style="font-size:3px;opacity:0.75;fill:none;stroke:#ee3333;stroke-width:18.75"
     x="9.983923"
     y="8.782959"
     id="text1"><tspan
       sodipodi:role="line"
       id="tspan1"
       style="font-size:3px;stroke-width:18.75"
       x="9.983923"
       y="8.782959" /></text>
  <rect
     style="opacity:0.75;fill:#000000;fill-opacity:0.48819876;stroke:none;stroke-width:18.75;stroke-opacity:1"
     id="rect1"
     width="6.09164"
     height="7.8858519"
     x="6.9019299"
     y="5.3536978" />
</svg>
